Coordinates
version=1
nRows=13
nColumns=40
inDegrees=yes

Units are S.I. units (second, meters, Newtons, ...)
Angles are in degrees.

endheader
time	pelvis_tilt	pelvis_list	pelvis_rotation	pelvis_tx	pelvis_ty	pelvis_tz	hip_flexion_r	hip_adduction_r	hip_rotation_r	knee_angle_r	knee_angle_r_beta	ankle_angle_r	subtalar_angle_r	mtp_angle_r	hip_flexion_l	hip_adduction_l	hip_rotation_l	knee_angle_l	knee_angle_l_beta	ankle_angle_l	subtalar_angle_l	mtp_angle_l	lumbar_extension	lumbar_bending	lumbar_rotation	arm_flex_r	arm_add_r	arm_rot_r	elbow_flex_r	pro_sup_r	wrist_flex_r	wrist_dev_r	arm_flex_l	arm_add_l	arm_rot_l	elbow_flex_l	pro_sup_l	wrist_flex_l	wrist_dev_l
     43.07000000	     -4.19118301	     -5.82120431	     -7.91622042	      0.92207032	      0.91672037	      0.43516318	     25.72103542	     -5.07825731	     -2.61942745	     61.74846965	     61.74846965	      4.38536283	    -15.04762682	      0.19739210	     17.50533495	     -5.29591367	     -5.16495061	     32.92682436	     32.92682436	     20.92748212	    -17.43238525	      7.16586736	    -10.76645325	      5.85074843	      1.39803270	     -3.24914099	    -12.47528376	     -9.54488368	     22.21137372	     46.83041170	      0.00000000	      0.00000000	     25.99936025	    -17.99944279	     -4.50320830	     47.93454542	     46.76959282	      0.00000000	      0.00000000
     43.08885714	     -4.23516219	     -5.91448194	     -8.60819762	      0.92049613	      0.91715524	      0.43564052	     26.67377000	     -4.62157767	     -2.45955140	     60.28850341	     60.28850341	      5.15426394	    -14.80937047	      0.01811574	     16.93153302	     -5.47036588	     -5.69511628	     32.59027721	     32.59027721	     21.21227855	    -17.48374030	      7.35248406	    -10.90795911	      6.01175598	      1.31915072	     -5.67130674	    -12.52710544	     -9.87882236	     22.09602673	     46.84165733	      0.00000000	      0.00000000	     26.82365379	    -18.44772517	     -5.07525631	     49.37997595	     46.84512584	      0.00000000	      0.00000000
     43.10771429	     -4.49131871	     -5.94058344	     -9.30810736	      0.91864661	      0.91770442	      0.43644649	     27.69800713	     -4.14192902	     -2.29326826	     58.20362231	     58.20362231	      5.97628109	    -14.35829899	     -0.12849918	     16.56872528	     -5.63562993	     -6.28676726	     32.16436556	     32.16436556	     21.32276683	    -17.47594472	      7.43337530	    -10.77700487	      6.15711958	      0.79330315	     -7.44747789	    -12.54803616	     -9.98637525	     21.66215061	     46.85256939	      0.00000000	      0.00000000	     27.65964514	    -19.37824215	     -5.42046734	     49.91642751	     46.88935973	      0.00000000	      0.00000000
     43.12657143	     -4.61576487	     -6.07224914	    -10.04817151	      0.91688299	      0.91908756	      0.43766644	     28.17311432	     -3.53871501	     -2.24749767	     55.17381967	     55.17381967	      6.08859464	    -13.96956988	     -2.28244328	     15.75555946	     -5.88730041	     -6.94137192	     31.21808968	     31.21808968	     21.26860256	    -17.41177462	      7.41264256	    -11.03489874	      6.33082934	      1.05360600	    -10.38887088	    -12.49128621	    -11.26729847	     23.87195071	     46.83208114	      0.00000000	      0.00000000	     27.86209357	    -19.38075023	     -7.19787587	     53.43831005	     47.08520262	      0.00000000	      0.00000000
     43.14542857	     -5.00241847	     -6.13788638	    -10.76394603	      0.91480383	      0.92040800	      0.43926835	     28.80756168	     -2.88909076	     -2.21011367	     51.76627230	     51.76627230	      6.77496783	    -13.06568811	     -2.36765898	     15.23797570	     -6.13557770	     -7.60788768	     30.23371181	     30.23371181	     21.19616537	    -17.24017483	      7.59730537	    -10.83270642	      6.44417613	      0.84569560	    -11.86004314	    -12.44079564	    -11.34922196	     23.49154871	     46.84033781	      0.00000000	      0.00000000	     28.75046342	    -20.10085589	     -7.51955806	     54.06174377	     47.12662851	      0.00000000	      0.00000000
     43.16428571	     -5.22318527	     -6.21757268	    -11.44951743	      0.91287658	      0.92228423	      0.44108674	     28.90296021	     -2.26113402	     -2.30038344	     47.69255267	     47.69255267	      7.28024295	    -11.72249527	     -2.60023248	     14.38444059	     -6.34791031	     -8.31271143	     28.97876765	     28.97876765	     21.01081844	    -17.03224707	      7.74303983	    -10.87155832	      6.56019934	      0.96116154	    -13.31727589	    -12.35326008	    -11.48875931	     23.36251285	     46.84131490	      0.00000000	      0.00000000	     29.69553630	    -20.46296895	     -7.93960785	     55.22666127	     47.18354225	      0.00000000	      0.00000000
     43.18314286	     -5.50779225	     -6.22720860	    -12.09944928	      0.91085359	      0.92401875	      0.44315692	     28.86419790	     -1.67429020	     -2.46006770	     43.25152928	     43.25152928	      7.55294308	    -10.02189649	     -2.82371656	     13.61112708	     -6.50648596	     -9.05921758	     27.70568853	     27.70568853	     20.76037168	    -16.78416090	      7.75236583	    -10.82995919	      6.58633573	      1.10639525	    -14.65059182	    -12.18687226	    -11.67429013	     23.53400825	     46.83261670	      0.00000000	      0.00000000	     30.63867192	    -20.84491643	     -8.46195621	     56.62129221	     47.25170962	      0.00000000	      0.00000000
     43.20200000	     -5.80467244	     -6.19691635	    -12.68266859	      0.90891041	      0.92552213	      0.44543406	     28.53981460	     -1.14066851	     -2.76648109	     38.36847913	     38.36847913	      7.02624982	     -8.07940649	     -4.95578307	     12.76740327	     -6.61939625	     -9.82937417	     26.20750948	     26.20750948	     19.84321981	    -16.60718922	      6.19911540	    -10.89790386	      6.56053892	      1.05077227	    -16.47753065	    -11.94207119	    -12.62494639	     26.23630957	     46.74824298	      0.00000000	      0.00000000	     30.78436030	    -21.13045430	    -10.29576100	     59.92914706	     47.44112204	      0.00000000	      0.00000000
     43.22085714	     -6.09592199	     -6.15092417	    -13.17456811	      0.90701585	      0.92682650	      0.44791206	     28.08572811	     -0.61196805	     -3.17050997	     33.54061148	     33.54061148	      7.00009336	     -5.39127288	     -4.48289756	     12.02612063	     -6.71326887	    -10.50051382	     24.93739735	     24.93739735	     19.60649778	    -16.17691142	      6.14953875	    -10.81733246	      6.50699452	      1.20251337	    -17.29717915	    -11.69125887	    -12.62862662	     26.26374107	     46.73231909	      0.00000000	      0.00000000	     31.88101311	    -21.48125875	    -10.55206695	     60.95951715	     47.48299122	      0.00000000	      0.00000000
     43.23971429	     -6.52739821	     -6.06306833	    -13.56296177	      0.90519634	      0.92750749	      0.45053805	     27.65497996	     -0.02269071	     -3.45167782	     28.77886124	     28.77886124	      6.66287009	     -2.91299911	     -3.58756912	     11.55934133	     -6.79800668	    -11.04035535	     23.86396444	     23.86396444	     19.45341801	    -15.77189205	      6.12514026	    -10.48617977	      6.47213714	      1.21689497	    -17.87738917	    -11.40531200	    -12.62635378	     26.35002326	     46.71865205	      0.00000000	      0.00000000	     32.85710737	    -21.85142923	    -10.74369716	     61.83298384	     47.51734262	      0.00000000	      0.00000000
     43.25857143	     -6.61438710	     -5.94337251	    -13.85567457	      0.90381767	      0.92810762	      0.45317168	     26.80181838	      0.32535777	     -4.10900930	     24.34002197	     24.34002197	      6.32285345	      0.44098924	     -2.42373720	     10.73668260	     -6.76145303	    -11.61949242	     22.84470596	     22.84470596	     19.32813970	    -15.30301478	      5.82109603	    -10.56498080	      6.33273214	      1.38137649	    -18.50359610	    -11.20868066	    -12.64628956	     26.60909377	     46.69741601	      0.00000000	      0.00000000	     33.92449842	    -22.13110972	    -11.00718628	     63.11227981	     47.56425049	      0.00000000	      0.00000000
     43.27742857	     -6.82437855	     -5.69629459	    -14.04104870	      0.90260876	      0.92793882	      0.45585437	     26.20867824	      0.57082045	     -4.69553964	     20.53860379	     20.53860379	      5.85464724	      3.44971408	     -1.06917224	     10.20710054	     -6.62081174	    -12.05319507	     22.04210579	     22.04210579	     19.24796813	    -14.88977734	      5.43536906	    -10.37411914	      6.13094593	      1.47095188	    -18.87241583	    -10.91907111	    -12.64139276	     26.90476133	     46.67542167	      0.00000000	      0.00000000	     34.89667324	    -22.31126345	    -11.21178428	     64.27295211	     47.60611154	      0.00000000	      0.00000000
     43.29628571	     -6.89924975	     -5.42464804	    -14.17662512	      0.90170990	      0.92747968	      0.45853339	     25.83797077	      0.55851655	     -5.90370213	     18.02433711	     18.02433711	      6.71387771	      7.37830761	      3.84053850	      9.48441490	     -6.40941167	    -12.52940854	     21.10339740	     21.10339740	     18.38472889	    -14.79711330	      2.90863757	    -10.39744607	      5.85877959	      1.40671518	    -19.49974639	    -10.82306449	    -12.44104092	     28.51844029	     46.54778455	      0.00000000	      0.00000000	     35.36443320	    -22.53002630	    -12.04590340	     66.67509677	     47.71690872	      0.00000000	      0.00000000
